<svg width="16" height="18" viewBox="0 0 16 18" fill="none" xmlns="http://www.w3.org/2000/svg">
<mask id="path-1-inside-1_675_3105" fill="white">
<path fill-rule="evenodd" clip-rule="evenodd" d="M5.63069 16.3095V13.7539C5.63067 13.1039 6.16061 12.5757 6.81718 12.5713H9.22225C9.88196 12.5713 10.4168 13.1008 10.4168 13.7539V16.3174C10.4166 16.8693 10.8616 17.3204 11.4189 17.3333H13.0222C14.6206 17.3333 15.9163 16.0506 15.9163 14.4682V7.19819C15.9078 6.57568 15.6126 5.99111 15.1147 5.61085L9.63111 1.23774C8.67045 0.476295 7.30484 0.476295 6.34419 1.23774L0.884696 5.61879C0.38489 5.99751 0.0891634 6.58305 0.0830078 7.20612V14.4682C0.0830078 16.0506 1.37874 17.3333 2.9771 17.3333H4.58048C5.15164 17.3333 5.61465 16.8749 5.61465 16.3095"/>
</mask>
<path d="M4.13069 16.3095C4.13069 17.1379 4.80226 17.8095 5.63069 17.8095C6.45911 17.8095 7.13069 17.1379 7.13069 16.3095H4.13069ZM5.63069 13.7539H7.13069V13.7538L5.63069 13.7539ZM6.81718 12.5713V11.0713L6.80722 11.0713L6.81718 12.5713ZM10.4168 16.3174L11.9168 16.3178V16.3174H10.4168ZM11.4189 17.3333L11.3841 18.8329C11.3957 18.8332 11.4073 18.8333 11.4189 18.8333V17.3333ZM13.0222 17.3333V15.8333V17.3333ZM15.9163 7.19819H17.4163C17.4163 7.19133 17.4163 7.18448 17.4162 7.17762L15.9163 7.19819ZM15.1147 5.61085L14.1794 6.78358C14.1876 6.79013 14.1959 6.79659 14.2042 6.80296L15.1147 5.61085ZM9.63111 1.23774L10.5664 0.0650017L10.5629 0.062224L9.63111 1.23774ZM6.34419 1.23774L5.41242 0.0622028L5.40539 0.0678449L6.34419 1.23774ZM0.884696 5.61879L1.79061 6.81433C1.80169 6.80593 1.81265 6.79738 1.82349 6.78868L0.884696 5.61879ZM0.0830078 7.20612L-1.41692 7.1913C-1.41697 7.19624 -1.41699 7.20118 -1.41699 7.20612H0.0830078ZM7.13069 16.3095V13.7539H4.13069V16.3095H7.13069ZM7.13069 13.7538C7.13069 13.9424 6.98099 14.0703 6.82715 14.0713L6.80722 11.0713C5.34022 11.0811 4.13065 12.2653 4.13069 13.7539L7.13069 13.7538ZM6.81718 14.0713H9.22225V11.0713H6.81718V14.0713ZM9.22225 14.0713C9.06779 14.0713 8.91676 13.9434 8.91676 13.7539H11.9168C11.9168 12.2582 10.6961 11.0713 9.22225 11.0713V14.0713ZM8.91676 13.7539V16.3174H11.9168V13.7539H8.91676ZM8.91676 16.317C8.91638 17.6976 10.0257 18.8014 11.3841 18.8329L11.4537 15.8337C11.6974 15.8394 11.9168 16.041 11.9168 16.3178L8.91676 16.317ZM11.4189 18.8333H13.0222V15.8333H11.4189V18.8333ZM13.0222 18.8333C15.4348 18.8333 17.4163 16.8932 17.4163 14.4682H14.4163C14.4163 15.2079 13.8064 15.8333 13.0222 15.8333V18.8333ZM17.4163 14.4682V7.19819H14.4163V14.4682H17.4163ZM17.4162 7.17762C17.4013 6.09143 16.8861 5.07631 16.0251 4.41874L14.2042 6.80296C14.339 6.90591 14.4143 7.05993 14.4165 7.21875L17.4162 7.17762ZM16.0499 4.43812L10.5664 0.0650069L8.69586 2.41047L14.1794 6.78358L16.0499 4.43812ZM10.5629 0.062224C9.05637 -1.13187 6.91893 -1.13187 5.41244 0.062224L7.27594 2.41326C7.69076 2.08446 8.28454 2.08446 8.69936 2.41326L10.5629 0.062224ZM5.40539 0.0678449L-0.0541035 4.44889L1.82349 6.78868L7.28299 2.40764L5.40539 0.0678449ZM-0.0212141 4.42324C-0.888323 5.08028 -1.40614 6.10045 -1.41692 7.1913L1.58293 7.22094C1.58447 7.06564 1.6581 6.91473 1.79061 6.81433L-0.0212141 4.42324ZM-1.41699 7.20612V14.4682H1.58301V7.20612H-1.41699ZM-1.41699 14.4682C-1.41699 16.8932 0.564564 18.8333 2.9771 18.8333V15.8333C2.19291 15.8333 1.58301 15.2079 1.58301 14.4682H-1.41699ZM2.9771 18.8333H4.58048V15.8333H2.9771V18.8333ZM4.58048 18.8333C5.96581 18.8333 7.11465 17.7175 7.11465 16.3095H4.11465C4.11465 16.0323 4.33746 15.8333 4.58048 15.8333V18.8333Z" fill="#6C757D" mask="url(#path-1-inside-1_675_3105)"/>
</svg>
