<svg width="20" height="20" viewBox="0 0 20 20" fill="none" xmlns="http://www.w3.org/2000/svg">
<path d="M11.5417 3.54193V5.5586" stroke="#6C757D" stroke-width="1.5" stroke-linecap="round" stroke-linejoin="round"/>
<path d="M11.5417 14.8001V16.4868" stroke="#6C757D" stroke-width="1.5" stroke-linecap="round" stroke-linejoin="round"/>
<path d="M11.5417 11.9372V7.91968" stroke="#6C757D" stroke-width="1.5" stroke-linecap="round" stroke-linejoin="round"/>
<path fill-rule="evenodd" clip-rule="evenodd" d="M15.5854 16.6667C17.1038 16.6667 18.3337 15.4521 18.3337 13.9526V11.7922C17.3289 11.7922 16.5198 10.9931 16.5198 10.0009C16.5198 9.00864 17.3289 8.20867 18.3337 8.20867L18.3328 6.04739C18.3328 4.54788 17.1021 3.33334 15.5846 3.33334H4.41609C2.89857 3.33334 1.66786 4.54788 1.66786 6.04739L1.66699 8.27905C2.67172 8.27905 3.48089 9.00864 3.48089 10.0009C3.48089 10.9931 2.67172 11.7922 1.66699 11.7922V13.9526C1.66699 15.4521 2.89683 16.6667 4.41522 16.6667H15.5854Z" stroke="#6C757D" stroke-width="1.5" stroke-linecap="round" stroke-linejoin="round"/>
</svg>
